<svg id="screenshot" viewBox="0 0 210 70" width="210" height="70" version="1.1" xmlns="http://www.w3.org/2000/svg" xmlns:xlink="http://www.w3.org/1999/xlink" style="-webkit-print-color-adjust: exact;"><g id="shape-61a12dc0-97d3-11ed-9a38-a555278193df" clip-path="url(#frame-clip-61a12dc0-97d3-11ed-9a38-a555278193df-70d4a0b0-97d3-11ed-ab03-1b845cc63a8e)"><defs><clipPath id="frame-clip-61a12dc0-97d3-11ed-9a38-a555278193df-70d4a0b0-97d3-11ed-ab03-1b845cc63a8e" class="frame-clip"><rect x="0" y="0" width="210" height="70"/></clipPath></defs><rect x="0" y="0" width="210" height="70" class="frame-background" style="fill: rgb(255, 255, 255); fill-opacity: 0;"/><g id="shape-4fc9c3f0-97d3-11ed-9a38-a555278193df"><g><path d="M170 1570 l0 -770 85 0 85 0 0 65 c0 36 3 65 6 65 4 0 27 -18 51 -41
185 -170 507 -119 636 102 36 61 57 150 57 240 0 230 -147 400 -366 424 -109
12 -256 -34 -337 -105 -19 -16 -37 -30 -41 -30 -3 0 -6 185 -6 410 l0 410 -85
0 -85 0 0 -770z m588 -84 c207 -105 201 -435 -10 -526 -107 -46 -246 -23 -327
53 -57 54 -81 119 -81 218 0 72 4 93 26 138 66 133 252 188 392 117z M2540
1924 l0 -417 -46 43 c-158 145 -418 141 -577 -9 -86 -81 -126 -182 -127 -316
0 -183 89 -335 237 -402 144 -66 333 -37 460 71 22 20 44 36 47 36 3 0 6 -29
6 -65 l0 -65 90 0 90 0 0 770 0 770 -90 0 -90 0 0 -416z m-199 -420 c85 -25
143 -74 179 -149 30 -61 27 -194 -4 -260 -49 -103 -139 -157 -262 -157 -88 0
-141 22 -203 84 -102 104 -109 287 -14 397 74 88 188 119 304 85z M4810 1570
l0 -770 90 0 90 0 0 66 0 67 46 -43 c25 -23 71 -54 102 -68 51 -24 68 -27 173
-27 113 0 116 1 191 38 91 44 146 102 192 197 30 62 31 70 31 195 0 125 -1
132 -32 197 -59 126 -162 205 -295 228 -126 22 -286 -22 -370 -102 -21 -19
-40 -33 -43 -30 -3 3 -5 189 -5 414 l0 408 -85 0 -85 0 0 -770z m574 -74 c54
-23 121 -91 146 -148 19 -44 22 -65 18 -137 -5 -97 -25 -145 -80 -198 -52 -51
-121 -76 -203 -76 -110 1 -191 44 -246 131 -27 43 -29 52 -29 153 0 124 5 143
56 199 82 90 226 123 338 76z M2970 2005 l0 -245 73 0 74 0 6 137 c4 75 7 185
7 245 l0 108 -80 0 -80 0 0 -245z M4400 2005 l0 -245 80 0 80 0 0 245 0 245
-80 0 -80 0 0 -245z M1404 2016 c-71 -31 -84 -98 -30 -152 26 -26 42 -34 71
-34 29 0 45 8 71 34 19 19 34 44 34 55 0 38 -30 82 -65 97 -41 17 -42 17 -81
0z M3748 1632 c-64 -23 -132 -73 -165 -121 -16 -22 -31 -40 -35 -41 -5 0 -8
20 -8 44 0 24 -3 58 -6 75 l-6 31 -79 0 -79 0 0 -410 0 -410 90 0 90 0 0 218
c0 244 10 304 61 378 47 69 98 98 182 102 89 5 128 -13 157 -73 19 -39 20 -61
20 -333 l0 -292 91 0 90 0 -3 338 c-3 323 -4 339 -25 377 -28 52 -68 89 -123
114 -58 26 -184 28 -252 3z M1350 1210 l0 -410 90 0 90 0 0 410 0 410 -90 0
-90 0 0 -410z M5992 1293 c3 -371 6 -383 85 -454 52 -47 102 -64 188 -62 118
1 218 52 286 145 l28 39 5 -33 c3 -18 7 -53 8 -78 l3 -45 78 -3 77 -3 0 411 0
410 -85 0 -85 0 0 -205 c0 -113 -5 -228 -11 -257 -30 -141 -121 -231 -234
-232 -67 -1 -110 19 -137 63 -22 35 -23 45 -26 334 l-3 297 -90 0 -90 0 3
-327z M6973 1613 c50 -97 367 -774 367 -786 0 -10 -40 -107 -89 -217 l-89
-200 86 0 87 1 235 541 c129 298 247 570 262 605 l27 64 -80 -3 -80 -3 -127
-285 c-71 -157 -132 -284 -138 -284 -5 1 -67 130 -139 288 l-130 286 -98 0
c-54 0 -96 -3 -94 -7z" transform="translate(0.02186893546695501, 0.046008473063466226) scale(0.25, 0.25) translate(0.000000,280.000000) scale(0.100000,-0.100000)" fill="#42437a" stroke="none"/></g></g></g></svg>