<?xml version="1.0" encoding="UTF-8" standalone="no"?>
<svg
   id="screenshot"
   viewBox="0 0 263.88318584070794 264"
   width="263.88318584070794"
   height="264"
   version="1.1"
   style="-webkit-print-color-adjust: exact;"
   sodipodi:docname="Artboard-3 (11).svg"
   inkscape:version="1.2 (dc2aeda, 2022-05-15)"
   xmlns:inkscape="http://www.inkscape.org/namespaces/inkscape"
   xmlns:sodipodi="http://sodipodi.sourceforge.net/DTD/sodipodi-0.dtd"
   xmlns="http://www.w3.org/2000/svg"
   xmlns:svg="http://www.w3.org/2000/svg">
  <defs
     id="defs2319" />
  <sodipodi:namedview
     id="namedview2317"
     pagecolor="#ffffff"
     bordercolor="#000000"
     borderopacity="0.25"
     inkscape:showpageshadow="2"
     inkscape:pageopacity="0.0"
     inkscape:pagecheckerboard="0"
     inkscape:deskcolor="#d1d1d1"
     showgrid="false"
     inkscape:zoom="2.5364777"
     inkscape:cx="233.59164"
     inkscape:cy="109.40368"
     inkscape:window-width="2560"
     inkscape:window-height="1403"
     inkscape:window-x="3360"
     inkscape:window-y="944"
     inkscape:window-maximized="1"
     inkscape:current-layer="screenshot" />
  <g
     id="shape-c05d7400-998a-11ed-9a38-a555278193df"
     clip-path="url(#frame-clip-c05d7400-998a-11ed-9a38-a555278193df-fab197c0-998b-11ed-bc9f-63bedc7bb1a5)">
    <defs
       id="defs2303">
      <clipPath
         id="frame-clip-c05d7400-998a-11ed-9a38-a555278193df-fab197c0-998b-11ed-bc9f-63bedc7bb1a5"
         class="frame-clip">
        <rect
           x="0"
           y="0"
           width="264"
           height="264"
           id="rect2300" />
      </clipPath>
    </defs>
    <rect
       x="0"
       y="0"
       width="264"
       height="264"
       class="frame-background"
       style="fill: rgb(207, 207, 207); fill-opacity: 0;"
       id="rect2305" />
    <g
       id="shape-c05d7401-998a-11ed-9a38-a555278193df">
      <rect
         rx="46"
         ry="46"
         x="0"
         y="0"
         transform="matrix(1,0,0,1,0,0)"
         width="264"
         height="264"
         style="fill:#e8f0ff;fill-opacity:0.75207692"
         id="rect2307" />
    </g>
    <g
       id="shape-aa620300-998a-11ed-9a38-a555278193df">
      <g
         id="g2312">
        <path
           d="M 310,2255 V 600 h 290 290 v 95 96 l 63,-51 c 85,-71 240,-143 348,-164 107,-21 300,-22 394,-2 360,77 635,339 726,693 58,229 39,532 -47,736 -62,148 -209,320 -337,396 -67,40 -151,74 -238,98 -82,23 -359,25 -464,4 -141,-28 -280,-84 -391,-157 -28,-19 -54,-34 -58,-34 -3,0 -6,360 -6,800 v 800 H 595 310 Z m 1196,-203 c 258,-68 417,-350 349,-617 -88,-344 -436,-492 -765,-325 -60,30 -106,71 -157,139 l -43,56 v 246 247 l 41,60 c 111,167 359,250 575,194 z m 5384,203 V 600 h 290 289 l 3,95 3,95 50,-40 c 172,-137 333,-191 569,-191 269,1 487,91 672,279 171,174 260,390 271,662 16,378 -106,673 -352,855 -171,127 -334,172 -584,162 -234,-9 -427,-71 -593,-188 -14,-11 -29,-19 -32,-19 -3,0 -6,360 -6,800 v 800 h -290 -290 z m 1195,-200 c 169,-44 316,-195 355,-364 17,-74 15,-209 -5,-279 -65,-224 -260,-373 -489,-372 -175,1 -351,90 -440,224 l -36,54 v 228 c 0,214 1,230 22,273 28,59 118,148 185,184 114,61 287,83 408,52 z M 2717.4884,3380.0548 v -530 h 248 249 l 6,383 c 4,210 7,448 7,530 v 147 h -255 -255 z m 2988.2511,0.9807 v -530 h 248 249 l 6,392 c 4,215 7,454 7,530 v 138 h -255 -255 z M 4825,2510 c -83,-9 -214,-44 -270,-72 -104,-52 -227,-161 -290,-256 -19,-30 -31,-39 -35,-30 -4,7 -15,73 -25,146 l -18,132 H 3924 3660 V 1515 600 h 290 290 v 408 c 0,447 7,533 51,665 39,118 70,169 149,248 57,56 76,68 138,89 59,18 86,22 142,17 123,-10 181,-51 226,-157 18,-42 19,-83 22,-658 l 3,-612 h 285 285 l -3,748 -3,747 -23,57 c -35,86 -98,175 -161,225 -63,50 -174,105 -241,121 -66,15 -205,21 -285,12 z"
           transform="matrix(0.025,0,0,-0.025,17.493891,187.03356)"
           fill="#42437a"
           stroke="none"
           id="path2310"
           inkscape:label="path2310"
           sodipodi:nodetypes="cccccccccccccccssccccccccccccccccccccccccccssccccccccccsccccccccscccccccccscscccsccccccccccsccccccccccccscc" />
      </g>
    </g>
  </g>
</svg>
