<svg id="screenshot" viewBox="0 0 120 39" width="120" height="39" version="1.1" xmlns="http://www.w3.org/2000/svg" xmlns:xlink="http://www.w3.org/1999/xlink" style="-webkit-print-color-adjust: exact;"><g id="shape-adb534c0-8d99-11ed-a216-4f6946eaeecd" clip-path="url(#frame-clip-adb534c0-8d99-11ed-a216-4f6946eaeecd-0b149730-91cf-11ed-a4b4-6f6f3a1b1c23)"><defs><clipPath id="frame-clip-adb534c0-8d99-11ed-a216-4f6946eaeecd-0b149730-91cf-11ed-a4b4-6f6f3a1b1c23" class="frame-clip"><rect x="0" y="0" width="120" height="39"/></clipPath></defs><rect x="0" y="0" width="120" height="39" class="frame-background" style="fill: rgb(255, 255, 255); fill-opacity: 0;"/><g id="shape-adb534c1-8d99-11ed-a216-4f6946eaeecd"><g><path d="M1406 1946 c-230 -69 -373 -117 -379 -127 -14 -23 -2 -49 23 -49 12
0 35 7 52 16 38 20 166 64 185 64 11 0 13 -109 13 -605 l0 -605 250 0 250 0 0
710 c0 562 -3 710 -12 709 -7 -1 -179 -51 -382 -113z M2502 2040 c-95 -25
-163 -63 -227 -125 -87 -84 -141 -190 -170 -331 -20 -97 -20 -334 0 -449 42
-239 169 -411 350 -476 76 -27 248 -37 338 -19 204 39 353 194 419 435 19 70
22 105 22 280 0 174 -3 210 -22 278 -62 225 -195 367 -383 412 -89 21 -237 18
-327 -5z m268 -40 c93 -15 198 -69 254 -131 51 -57 96 -143 121 -234 23 -81
32 -369 15 -474 -29 -181 -105 -321 -214 -396 -66 -45 -124 -65 -213 -74 l-73
-7 0 663 0 663 23 0 c12 0 51 -5 87 -10z M4537 2049 c-9 -6 -28 -32 -42 -59
-41 -80 -754 -1191 -799 -1245 -24 -27 -45 -58 -49 -67 -18 -50 38 -66 78 -23
13 15 202 308 420 652 219 344 408 642 421 661 13 19 24 43 24 53 0 24 -30 40
-53 28z M3732 2029 c-105 -18 -210 -96 -247 -186 -21 -49 -22 -148 -1 -210 86
-260 487 -270 604 -15 21 47 24 64 20 131 -5 88 -28 141 -85 196 -59 58 -101
75 -213 90 -14 1 -49 -1 -78 -6z m172 -73 c86 -36 146 -129 146 -226 0 -134
-104 -238 -237 -240 l-43 0 0 246 0 247 52 -7 c28 -4 65 -13 82 -20z M464
1578 c-4 -7 -7 -89 -5 -182 l3 -169 -170 6 c-182 8 -202 3 -187 -43 8 -24 -9
-22 193 -20 l164 2 -2 -164 c-1 -90 -2 -168 -1 -175 2 -18 40 -26 57 -12 13
11 14 36 8 182 l-7 168 172 -2 c110 -1 175 1 182 8 6 6 9 21 7 34 l-3 24 -179
-4 -178 -4 3 179 4 179 -27 3 c-14 2 -30 -3 -34 -10z M4356 1225 c-70 -28
-136 -90 -168 -154 -30 -63 -30 -176 0 -243 29 -66 100 -132 170 -158 78 -29
205 -26 274 8 60 30 120 90 150 150 34 71 32 178 -6 255 -70 144 -260 208
-420 142z m244 -56 c111 -50 165 -155 140 -274 -22 -104 -108 -177 -222 -188
l-48 -5 0 244 0 244 43 0 c23 0 62 -10 87 -21z" transform="translate(-1, -7) scale(0.25, 0.25) translate(0.000000,248.000000) scale(0.100000,-0.100000)" fill="white" stroke="none"/></g></g></g></svg>
