<svg id="screenshot" viewBox="0 0 130 80" width="130" height="80" version="1.1" xmlns="http://www.w3.org/2000/svg" xmlns:xlink="http://www.w3.org/1999/xlink" style="-webkit-print-color-adjust: exact;"><g id="shape-9313bb51-8d99-11ed-a216-4f6946eaeecd" clip-path="url(#frame-clip-9313bb51-8d99-11ed-a216-4f6946eaeecd-f5342a30-8d9a-11ed-bd1a-c957c2569961)"><defs><clipPath id="frame-clip-9313bb51-8d99-11ed-a216-4f6946eaeecd-f5342a30-8d9a-11ed-bd1a-c957c2569961" class="frame-clip"><rect x="0" y="0" width="130" height="80"/></clipPath></defs><rect x="0" y="0" width="130" height="80" class="frame-background" style="fill: rgb(255, 255, 255); fill-opacity: 0;"/><g id="shape-5fd71fc1-8d99-11ed-a216-4f6946eaeecd"><g><path d="M1406 1946 c-230 -69 -373 -117 -379 -127 -14 -23 -2 -49 23 -49 12
0 35 7 52 16 38 20 166 64 185 64 11 0 13 -109 13 -605 l0 -605 250 0 250 0 0
710 c0 562 -3 710 -12 709 -7 -1 -179 -51 -382 -113z M3192 2051 c-6 -3 -31
-42 -55 -86 -71 -127 -738 -1164 -790 -1229 -54 -65 -59 -99 -17 -104 17 -2
34 6 52 25 15 15 199 300 410 633 212 333 401 631 422 662 21 31 36 64 34 74
-3 19 -39 36 -56 25z M2393 2030 c-106 -15 -196 -79 -240 -168 -55 -113 -29
-257 63 -342 69 -64 123 -83 229 -84 79 -1 97 2 147 27 74 36 143 112 163 180
34 116 10 213 -73 297 -78 78 -171 107 -289 90z m191 -88 c94 -51 141 -158
117 -266 -24 -107 -104 -175 -218 -184 l-53 -4 0 247 0 248 52 -7 c29 -4 75
-19 102 -34z M464 1578 c-4 -7 -7 -89 -5 -182 l3 -169 -170 6 c-182 8 -202 3
-187 -43 8 -24 -9 -22 193 -20 l164 2 -2 -164 c-1 -90 -2 -168 -1 -175 2 -18
40 -26 57 -12 13 11 14 36 8 182 l-7 168 172 -2 c110 -1 175 1 182 8 6 6 9 21
7 34 l-3 24 -179 -4 -178 -4 3 179 4 179 -27 3 c-14 2 -30 -3 -34 -10z M3031
1234 c-86 -30 -142 -80 -187 -164 -13 -25 -18 -57 -19 -115 0 -68 4 -89 28
-137 53 -109 137 -160 273 -166 83 -4 97 -2 151 23 219 98 253 377 64 517 -23
17 -62 36 -88 44 -60 18 -167 17 -222 -2z m255 -80 c75 -46 108 -100 112 -185
9 -150 -77 -251 -223 -261 l-50 -3 -3 244 -2 243 59 -4 c43 -3 73 -12 107 -34z" transform="translate(19.5, 9) scale(0.25, 0.25) translate(0.000000,248.000000) scale(0.100000,-0.100000)" fill="#fff" stroke="none"/></g></g></g></svg>
