<svg id="screenshot" viewBox="0 0 130 80" width="130" height="80" version="1.1" xmlns="http://www.w3.org/2000/svg" xmlns:xlink="http://www.w3.org/1999/xlink" style="-webkit-print-color-adjust: exact;"><g id="shape-a61944e0-8d99-11ed-a216-4f6946eaeecd" clip-path="url(#frame-clip-a61944e0-8d99-11ed-a216-4f6946eaeecd-0d90e3c0-8d9b-11ed-9937-33c6d29fbcde)"><defs><clipPath id="frame-clip-a61944e0-8d99-11ed-a216-4f6946eaeecd-0d90e3c0-8d9b-11ed-9937-33c6d29fbcde" class="frame-clip"><rect x="0" y="0" width="130" height="80"/></clipPath></defs><rect x="0" y="0" width="130" height="80" class="frame-background" style="fill: rgb(255, 255, 255); fill-opacity: 0;"/><g id="shape-a61944e1-8d99-11ed-a216-4f6946eaeecd"><g><path d="M1815 2048 c-66 -5 -217 -6 -336 -3 -241 6 -229 9 -229 -63 0 -20
-12 -137 -26 -260 -14 -122 -23 -229 -20 -237 8 -22 36 -18 107 14 81 36 190
61 268 61 l61 0 0 -435 0 -435 -78 0 c-150 0 -265 49 -353 150 -53 62 -81 73
-98 42 -13 -24 12 -74 57 -113 45 -40 178 -104 257 -124 75 -19 240 -19 321 0
191 45 341 170 394 329 24 74 29 205 10 277 -41 153 -168 280 -340 340 -56 20
-85 23 -210 23 -136 1 -150 -1 -232 -30 -105 -36 -96 -61 -66 203 l21 192 342
3 c365 3 380 5 373 52 -4 26 -43 28 -223 14z M3467 2049 c-9 -6 -28 -32 -42
-59 -41 -80 -754 -1191 -799 -1245 -24 -27 -45 -58 -49 -67 -18 -50 38 -66 78
-23 13 15 202 308 420 652 219 344 408 642 421 661 13 19 24 43 24 53 0 24
-30 40 -53 28z M2662 2029 c-105 -18 -210 -96 -247 -186 -21 -49 -22 -148 -1
-210 86 -260 487 -270 604 -15 21 47 24 64 20 131 -5 88 -28 141 -85 196 -59
58 -101 75 -213 90 -14 1 -49 -1 -78 -6z m172 -73 c86 -36 146 -129 146 -226
0 -134 -104 -238 -237 -240 l-43 0 0 246 0 247 52 -7 c28 -4 65 -13 82 -20z
M464 1578 c-4 -7 -7 -89 -5 -182 l3 -169 -170 6 c-182 8 -202 3 -187 -43 8
-24 -9 -22 193 -20 l164 2 -2 -164 c-1 -90 -2 -168 -1 -175 2 -18 40 -26 57
-12 13 11 14 36 8 182 l-7 168 172 -2 c110 -1 175 1 182 8 6 6 9 21 7 34 l-3
24 -179 -4 -178 -4 3 179 4 179 -27 3 c-14 2 -30 -3 -34 -10z M3286 1225 c-70
-28 -136 -90 -168 -154 -30 -63 -30 -176 0 -243 29 -66 100 -132 170 -158 78
-29 205 -26 274 8 60 30 120 90 150 150 34 71 32 178 -6 255 -70 144 -260 208
-420 142z m244 -56 c111 -50 165 -155 140 -274 -22 -104 -108 -177 -222 -188
l-48 -5 0 244 0 244 43 0 c23 0 62 -10 87 -21z" transform="translate(16.5, 9) scale(0.25, 0.25) translate(0.000000,248.000000) scale(0.100000,-0.100000)" fill="#000" stroke="none"/></g></g></g></svg>
